<svg width="20" height="20" viewBox="0 0 20 20" fill="none" xmlns="http://www.w3.org/2000/svg">
<g clip-path="url(#clip0_979_4108)">
<path d="M18.3545 1.64606C17.8333 1.12563 17.1268 0.833328 16.3902 0.833328C15.6537 0.833328 14.9472 1.12563 14.426 1.64606L1.9567 14.1154C1.59962 14.4704 1.31649 14.8928 1.1237 15.358C0.930902 15.8232 0.832271 16.322 0.833508 16.8256V18.3996C0.833508 18.6029 0.914283 18.7979 1.05806 18.9417C1.20184 19.0855 1.39685 19.1663 1.60019 19.1663H3.17419C3.67771 19.1677 4.17652 19.0692 4.64173 18.8766C5.10695 18.6839 5.52932 18.4009 5.88441 18.0438L18.3545 5.57377C18.8747 5.05257 19.1668 4.34629 19.1668 3.60991C19.1668 2.87354 18.8747 2.16725 18.3545 1.64606ZM4.80032 16.9598C4.36791 17.3893 3.78367 17.6311 3.17419 17.6329H2.36687V16.8256C2.36609 16.5234 2.42526 16.2241 2.54094 15.945C2.65661 15.6659 2.82651 15.4125 3.04078 15.1995L12.5039 5.73631L14.2673 7.49967L4.80032 16.9598ZM17.2696 4.48968L15.3483 6.41175L13.585 4.65222L15.507 2.73015C15.6228 2.61461 15.7602 2.52302 15.9114 2.46059C16.0626 2.39816 16.2246 2.36612 16.3881 2.3663C16.5517 2.36647 16.7136 2.39887 16.8647 2.46163C17.0157 2.52438 17.1529 2.61628 17.2685 2.73206C17.384 2.84785 17.4756 2.98525 17.538 3.13644C17.6005 3.28762 17.6325 3.44962 17.6323 3.61319C17.6321 3.77675 17.5998 3.93868 17.537 4.08973C17.4742 4.24078 17.3823 4.37798 17.2666 4.49351L17.2696 4.48968Z" fill="#1A1B22"/>
</g>
<defs>
<clipPath id="clip0_979_4108">
<rect width="20" height="20" fill="white"/>
</clipPath>
</defs>
</svg>
