<svg width="20" height="20" viewBox="0 0 20 20" fill="none" xmlns="http://www.w3.org/2000/svg">
<path d="M19.9125 3.79375L18.2458 0.460417C18.1766 0.321967 18.0701 0.205554 17.9383 0.124231C17.8066 0.0429076 17.6548 -0.000110625 17.5 2.13647e-07H2.5C2.34518 -0.000110625 2.1934 0.0429076 2.06166 0.124231C1.92992 0.205554 1.82345 0.321967 1.75417 0.460417L0.0875 3.79375C0.0300592 3.90968 0.000117172 4.03729 0 4.16667V18.3333C0 18.7754 0.175595 19.1993 0.488155 19.5118C0.800716 19.8244 1.22464 20 1.66667 20H18.3333C18.7754 20 19.1993 19.8244 19.5118 19.5118C19.8244 19.1993 20 18.7754 20 18.3333V4.16667C19.9999 4.03729 19.9699 3.90968 19.9125 3.79375ZM3.01458 1.66667H16.9854L17.8187 3.33333H2.18125L3.01458 1.66667ZM18.3333 18.3333H1.66667V5H18.3333V18.3333ZM13.9229 11.9104C14.0004 11.9878 14.0619 12.0797 14.1038 12.1809C14.1457 12.282 14.1673 12.3905 14.1673 12.5C14.1673 12.6095 14.1457 12.718 14.1038 12.8191C14.0619 12.9203 14.0004 13.0122 13.9229 13.0896L10.5896 16.4229C10.5122 16.5004 10.4203 16.5619 10.3191 16.6038C10.218 16.6457 10.1095 16.6673 10 16.6673C9.89049 16.6673 9.78205 16.6457 9.68088 16.6038C9.57972 16.5619 9.48781 16.5004 9.41042 16.4229L6.07708 13.0896C5.92072 12.9332 5.83287 12.7211 5.83287 12.5C5.83287 12.2789 5.92072 12.0668 6.07708 11.9104C6.23345 11.754 6.44553 11.6662 6.66667 11.6662C6.8878 11.6662 7.09988 11.754 7.25625 11.9104L9.16667 13.8219V7.5C9.16667 7.27899 9.25446 7.06702 9.41074 6.91074C9.56702 6.75446 9.77899 6.66667 10 6.66667C10.221 6.66667 10.433 6.75446 10.5893 6.91074C10.7455 7.06702 10.8333 7.27899 10.8333 7.5V13.8219L12.7437 11.9104C12.8211 11.8329 12.9131 11.7715 13.0142 11.7295C13.1154 11.6876 13.2238 11.666 13.3333 11.666C13.4428 11.666 13.5513 11.6876 13.6524 11.7295C13.7536 11.7715 13.8455 11.8329 13.9229 11.9104Z" fill="#1A1B22"/>
</svg>
