<svg width="48" height="48" viewBox="0 0 48 48" fill="none" xmlns="http://www.w3.org/2000/svg">
<g filter="url(#filter0_d_950_6593)">
<rect x="6" y="2" width="36" height="36" rx="6" fill="white"/>
<path d="M24.6833 14.65L24 15.335L23.3133 14.6483C22.4732 13.8084 21.3339 13.3365 20.1459 13.3366C18.958 13.3367 17.8187 13.8087 16.9787 14.6488C16.1388 15.4888 15.6669 16.6282 15.667 17.8161C15.6671 19.0041 16.1391 20.1434 16.9791 20.9833L23.5583 27.5625C23.6755 27.6795 23.8343 27.7453 24 27.7453C24.1656 27.7453 24.3244 27.6795 24.4416 27.5625L31.0266 20.9817C31.8657 20.1415 32.3369 19.0026 32.3368 17.8152C32.3366 16.6279 31.8651 15.4891 31.0258 14.6492C30.6094 14.2325 30.1151 13.902 29.5709 13.6765C29.0268 13.451 28.4436 13.335 27.8546 13.335C27.2655 13.335 26.6823 13.451 26.1382 13.6765C25.594 13.902 25.0997 14.2334 24.6833 14.65ZM30.14 20.1L24 26.2375L17.8625 20.1C17.56 19.8007 17.3196 19.4446 17.1552 19.0522C16.9908 18.6597 16.9056 18.2386 16.9045 17.8131C16.9034 17.3876 16.9863 16.9661 17.1487 16.5727C17.311 16.1794 17.5494 15.822 17.8503 15.5212C18.1512 15.2203 18.5085 14.9818 18.9019 14.8195C19.2952 14.6572 19.7167 14.5742 20.1422 14.5754C20.5677 14.5765 20.9888 14.6617 21.3813 14.8261C21.7738 14.9905 22.1299 15.2309 22.4291 15.5333L23.5608 16.6642C23.6197 16.7231 23.6897 16.7697 23.7669 16.8012C23.844 16.8326 23.9267 16.8484 24.01 16.8474C24.0933 16.8465 24.1756 16.8289 24.252 16.7957C24.3284 16.7626 24.3974 16.7144 24.455 16.6542L25.5666 15.5333C26.1794 14.963 26.9895 14.6525 27.8265 14.6672C28.6635 14.682 29.4621 15.0207 30.0544 15.6123C30.6468 16.2039 30.9865 17.0021 31.0023 17.8391C31.0181 18.676 30.7095 19.4865 30.14 20.1Z" fill="#1D6BF3"/>
</g>
<defs>
<filter id="filter0_d_950_6593" x="0" y="0" width="48" height="48" filterUnits="userSpaceOnUse" color-interpolation-filters="sRGB">
<feFlood flood-opacity="0" result="BackgroundImageFix"/>
<feColorMatrix in="SourceAlpha" type="matrix" values="0 0 0 0 0 0 0 0 0 0 0 0 0 0 0 0 0 0 127 0" result="hardAlpha"/>
<feOffset dy="4"/>
<feGaussianBlur stdDeviation="3"/>
<feComposite in2="hardAlpha" operator="out"/>
<feColorMatrix type="matrix" values="0 0 0 0 0.690196 0 0 0 0 0.745098 0 0 0 0 0.772549 0 0 0 0.3 0"/>
<feBlend mode="normal" in2="BackgroundImageFix" result="effect1_dropShadow_950_6593"/>
<feBlend mode="normal" in="SourceGraphic" in2="effect1_dropShadow_950_6593" result="shape"/>
</filter>
</defs>
</svg>
