<svg width="25" height="25" viewBox="0 0 25 25" fill="none" xmlns="http://www.w3.org/2000/svg">
<path d="M10.2918 17.7817L8.55085 19.5311C8.09454 20.0029 7.4695 20.2741 6.81321 20.2851C6.15692 20.2961 5.52316 20.0459 5.05133 19.5896C4.57951 19.1333 4.30828 18.5082 4.2973 17.852C4.28633 17.1957 4.53651 16.5619 4.99282 16.0901L9.45611 11.4648C9.89419 11.0104 10.4902 10.7417 11.1208 10.7144C11.7514 10.6871 12.3684 10.9033 12.8441 11.3181L12.9658 11.4161C13.1585 11.5986 13.4158 11.697 13.6811 11.6898C13.9463 11.6825 14.1979 11.5702 14.3803 11.3775C14.5628 11.1848 14.6612 10.9275 14.654 10.6622C14.6467 10.3969 14.5344 10.1454 14.3417 9.96292C14.284 9.8909 14.2228 9.82183 14.1582 9.75596C13.2923 9.02765 12.1819 8.6557 11.0519 8.71544C9.92201 8.77519 8.85703 9.26218 8.07273 10.0777L3.54944 14.704C2.78213 15.5678 2.37818 16.6945 2.42194 17.8491C2.4657 19.0036 2.9538 20.0965 3.78429 20.8997C4.61479 21.7029 5.72347 22.1542 6.8788 22.1593C8.03413 22.1645 9.14678 21.7231 9.98439 20.9273L11.6859 19.2086C11.8536 19.0194 11.9434 18.7738 11.9372 18.5211C11.9311 18.2683 11.8295 18.0273 11.6528 17.8465C11.4762 17.6657 11.2376 17.5585 10.9851 17.5464C10.7326 17.5344 10.4849 17.6185 10.2918 17.7817ZM20.7423 3.36499C19.8872 2.54317 18.7417 2.09304 17.5559 2.11287C16.3701 2.1327 15.2403 2.62088 14.4132 3.47082L12.7116 5.18951C12.544 5.37869 12.4542 5.62435 12.4603 5.87707C12.4664 6.12979 12.5681 6.37081 12.7447 6.55163C12.9214 6.73245 13.16 6.83966 13.4125 6.85167C13.665 6.86369 13.9127 6.77963 14.1057 6.6164L15.8067 4.86771C16.263 4.39589 16.8881 4.12466 17.5443 4.11368C18.2006 4.10271 18.8344 4.35289 19.3062 4.8092C19.778 5.2655 20.0493 5.89055 20.0602 6.54683C20.0712 7.20312 19.821 7.83688 19.3647 8.30871L14.9014 12.934C14.4634 13.3884 13.8674 13.6571 13.2367 13.6844C12.6061 13.7117 11.9891 13.4955 11.5134 13.0806L11.3918 12.9827C11.1991 12.8002 10.9418 12.7018 10.6765 12.709C10.4112 12.7163 10.1597 12.8286 9.97721 13.0213C9.79475 13.214 9.69632 13.4713 9.70357 13.7366C9.71082 14.0019 9.82316 14.2534 10.0159 14.4359C10.0897 14.5089 10.1677 14.5778 10.2493 14.642C11.1163 15.368 12.2262 15.7385 13.3554 15.6788C14.4846 15.6191 15.5493 15.1336 16.3348 14.3202L20.8081 9.69477C21.6353 8.8449 22.0927 7.70224 22.0804 6.5163C22.0681 5.33036 21.587 4.19747 20.7423 3.36499Z" fill="#1A1B22"/>
</svg>
