<svg width="739" height="670" viewBox="0 0 739 670" fill="none" xmlns="http://www.w3.org/2000/svg">
<path d="M944 195C944 454.022 734.022 664 475 664C449.909 664 425.278 662.03 401.253 658.235L398.042 663.798C423.091 667.878 448.798 670 475 670C737.335 670 950 457.335 950 195C950 -67.3353 737.335 -280 475 -280C212.665 -280 0 -67.3353 0 195C0 421.413 158.411 610.827 370.446 658.456L373.592 653.008C163.32 606.66 6 419.202 6 195C6 -64.0215 215.978 -274 475 -274C734.022 -274 944 -64.0215 944 195Z" fill="white"/>
</svg>
