<svg width="72" height="72" viewBox="0 0 72 72" fill="none" xmlns="http://www.w3.org/2000/svg">
<circle cx="36" cy="36" r="36" fill="#DDE0E4"/>
<path d="M28.2088 26.682V48H25.0468V26.682H17.7708V24.37H35.4848V26.682H28.2088ZM45.1594 48.34C44.0941 48.34 43.1307 48.2607 42.2694 48.102C41.4081 47.966 40.6487 47.7847 39.9914 47.558C39.3567 47.3313 38.8127 47.082 38.3594 46.81C37.9061 46.5153 37.5547 46.232 37.3054 45.96V43.41C37.6227 43.682 38.0421 43.9653 38.5634 44.26C39.1074 44.5547 39.7194 44.8267 40.3994 45.076C41.0794 45.3027 41.8274 45.4953 42.6434 45.654C43.4594 45.8127 44.2981 45.892 45.1594 45.892C46.8594 45.892 48.2307 45.5407 49.2734 44.838C50.3161 44.1127 50.8374 43.036 50.8374 41.608C50.8374 40.928 50.7127 40.3727 50.4634 39.942C50.2141 39.5113 49.8514 39.16 49.3754 38.888C48.8994 38.5933 48.3101 38.344 47.6074 38.14C46.9047 37.9133 46.1001 37.6867 45.1934 37.46C44.2641 37.2107 43.3347 36.9387 42.4054 36.644C41.4987 36.3267 40.6714 35.9187 39.9234 35.42C39.1981 34.8987 38.6087 34.2527 38.1554 33.482C37.7021 32.7113 37.4754 31.7367 37.4754 30.558C37.4754 28.5407 38.1894 26.954 39.6174 25.798C41.0681 24.642 43.2667 24.064 46.2134 24.064C47.9361 24.064 49.3187 24.234 50.3614 24.574C51.4041 24.8913 52.1747 25.2427 52.6734 25.628V28.178C51.7441 27.5887 50.7354 27.1693 49.6474 26.92C48.5821 26.648 47.4374 26.512 46.2134 26.512C44.1054 26.512 42.6094 26.8747 41.7254 27.6C40.8641 28.3027 40.4334 29.2433 40.4334 30.422C40.4334 31.102 40.5807 31.6687 40.8754 32.122C41.1927 32.5527 41.6007 32.9153 42.0994 33.21C42.6207 33.482 43.2101 33.72 43.8674 33.924C44.5247 34.1053 45.2047 34.2753 45.9074 34.434C46.8367 34.6607 47.7774 34.9213 48.7294 35.216C49.6814 35.488 50.5427 35.8847 51.3134 36.406C52.1067 36.9047 52.7414 37.562 53.2174 38.378C53.7161 39.1713 53.9654 40.2027 53.9654 41.472C53.9654 42.7187 53.7161 43.784 53.2174 44.668C52.7414 45.5293 52.0954 46.232 51.2794 46.776C50.4634 47.32 49.5227 47.7167 48.4574 47.966C47.3921 48.2153 46.2927 48.34 45.1594 48.34Z" fill="#B5B5B7"/>
</svg>
